<mxfile host="app.diagrams.net" agent="Mozilla/5.0 (Windows NT 10.0; Win64; x64; rv:135.0) Gecko/20100101 Firefox/135.0" version="26.0.14">
  <diagram id="C5RBs43oDa-KdzZeNtuy" name="Page-1">
    <mxGraphModel dx="1820" dy="483" grid="1" gridSize="10" guides="1" tooltips="1" connect="1" arrows="1" fold="1" page="1" pageScale="1" pageWidth="827" pageHeight="1169" math="0" shadow="0">
      <root>
        <mxCell id="WIyWlLk6GJQsqaUBKTNV-0" />
        <mxCell id="WIyWlLk6GJQsqaUBKTNV-1" parent="WIyWlLk6GJQsqaUBKTNV-0" />
        <mxCell id="Q50zAmBe0Ixp0AazkEY6-4" value="CarController" style="swimlane;fontStyle=1;align=center;verticalAlign=top;childLayout=stackLayout;horizontal=1;startSize=26;horizontalStack=0;resizeParent=1;resizeParentMax=0;resizeLast=0;collapsible=1;marginBottom=0;whiteSpace=wrap;html=1;" vertex="1" parent="WIyWlLk6GJQsqaUBKTNV-1">
          <mxGeometry x="-140" y="210" width="240" height="120" as="geometry" />
        </mxCell>
        <mxCell id="Q50zAmBe0Ixp0AazkEY6-5" value="&lt;div&gt;cars: ArrayList &amp;lt;Cars&amp;gt;&lt;/div&gt;" style="text;strokeColor=none;fillColor=none;align=left;verticalAlign=top;spacingLeft=4;spacingRight=4;overflow=hidden;rotatable=0;points=[[0,0.5],[1,0.5]];portConstraint=eastwest;whiteSpace=wrap;html=1;" vertex="1" parent="Q50zAmBe0Ixp0AazkEY6-4">
          <mxGeometry y="26" width="240" height="34" as="geometry" />
        </mxCell>
        <mxCell id="Q50zAmBe0Ixp0AazkEY6-6" value="" style="line;strokeWidth=1;fillColor=none;align=left;verticalAlign=middle;spacingTop=-1;spacingLeft=3;spacingRight=3;rotatable=0;labelPosition=right;points=[];portConstraint=eastwest;strokeColor=inherit;" vertex="1" parent="Q50zAmBe0Ixp0AazkEY6-4">
          <mxGeometry y="60" width="240" height="8" as="geometry" />
        </mxCell>
        <mxCell id="Q50zAmBe0Ixp0AazkEY6-7" value="&lt;div&gt;+ gas(int): void&lt;/div&gt;&lt;div&gt;+ brake(int): void&lt;/div&gt;" style="text;strokeColor=none;fillColor=none;align=left;verticalAlign=top;spacingLeft=4;spacingRight=4;overflow=hidden;rotatable=0;points=[[0,0.5],[1,0.5]];portConstraint=eastwest;whiteSpace=wrap;html=1;" vertex="1" parent="Q50zAmBe0Ixp0AazkEY6-4">
          <mxGeometry y="68" width="240" height="52" as="geometry" />
        </mxCell>
        <mxCell id="Q50zAmBe0Ixp0AazkEY6-8" value="CarView" style="swimlane;fontStyle=1;align=center;verticalAlign=top;childLayout=stackLayout;horizontal=1;startSize=26;horizontalStack=0;resizeParent=1;resizeParentMax=0;resizeLast=0;collapsible=1;marginBottom=0;whiteSpace=wrap;html=1;" vertex="1" parent="WIyWlLk6GJQsqaUBKTNV-1">
          <mxGeometry x="180" y="210" width="180" height="132" as="geometry" />
        </mxCell>
        <mxCell id="Q50zAmBe0Ixp0AazkEY6-9" value="&lt;div&gt;carC: CarController&lt;/div&gt;&lt;div&gt;drawPanel: DrawPanel&lt;/div&gt;" style="text;strokeColor=none;fillColor=none;align=left;verticalAlign=top;spacingLeft=4;spacingRight=4;overflow=hidden;rotatable=0;points=[[0,0.5],[1,0.5]];portConstraint=eastwest;whiteSpace=wrap;html=1;" vertex="1" parent="Q50zAmBe0Ixp0AazkEY6-8">
          <mxGeometry y="26" width="180" height="54" as="geometry" />
        </mxCell>
        <mxCell id="Q50zAmBe0Ixp0AazkEY6-10" value="" style="line;strokeWidth=1;fillColor=none;align=left;verticalAlign=middle;spacingTop=-1;spacingLeft=3;spacingRight=3;rotatable=0;labelPosition=right;points=[];portConstraint=eastwest;strokeColor=inherit;" vertex="1" parent="Q50zAmBe0Ixp0AazkEY6-8">
          <mxGeometry y="80" width="180" height="8" as="geometry" />
        </mxCell>
        <mxCell id="Q50zAmBe0Ixp0AazkEY6-11" value="- InitComponents(String): void" style="text;strokeColor=none;fillColor=none;align=left;verticalAlign=top;spacingLeft=4;spacingRight=4;overflow=hidden;rotatable=0;points=[[0,0.5],[1,0.5]];portConstraint=eastwest;whiteSpace=wrap;html=1;" vertex="1" parent="Q50zAmBe0Ixp0AazkEY6-8">
          <mxGeometry y="88" width="180" height="44" as="geometry" />
        </mxCell>
        <mxCell id="Q50zAmBe0Ixp0AazkEY6-12" value="DrawPanel" style="swimlane;fontStyle=1;align=center;verticalAlign=top;childLayout=stackLayout;horizontal=1;startSize=26;horizontalStack=0;resizeParent=1;resizeParentMax=0;resizeLast=0;collapsible=1;marginBottom=0;whiteSpace=wrap;html=1;" vertex="1" parent="WIyWlLk6GJQsqaUBKTNV-1">
          <mxGeometry x="470" y="210" width="220" height="140" as="geometry" />
        </mxCell>
        <mxCell id="Q50zAmBe0Ixp0AazkEY6-13" value="&lt;div&gt;carImages: List&amp;lt;BufferedImage&amp;gt;&lt;/div&gt;&lt;div&gt;volvoWorkshopImage: BufferedImage&lt;/div&gt;&lt;div&gt;volvoWorkshopPoint: Point&lt;/div&gt;&lt;div&gt;drawCoords: List&amp;lt;Point&amp;gt;&lt;/div&gt;&lt;div&gt;&lt;br&gt;&lt;/div&gt;" style="text;strokeColor=none;fillColor=none;align=left;verticalAlign=top;spacingLeft=4;spacingRight=4;overflow=hidden;rotatable=0;points=[[0,0.5],[1,0.5]];portConstraint=eastwest;whiteSpace=wrap;html=1;" vertex="1" parent="Q50zAmBe0Ixp0AazkEY6-12">
          <mxGeometry y="26" width="220" height="74" as="geometry" />
        </mxCell>
        <mxCell id="Q50zAmBe0Ixp0AazkEY6-14" value="" style="line;strokeWidth=1;fillColor=none;align=left;verticalAlign=middle;spacingTop=-1;spacingLeft=3;spacingRight=3;rotatable=0;labelPosition=right;points=[];portConstraint=eastwest;strokeColor=inherit;" vertex="1" parent="Q50zAmBe0Ixp0AazkEY6-12">
          <mxGeometry y="100" width="220" height="8" as="geometry" />
        </mxCell>
        <mxCell id="Q50zAmBe0Ixp0AazkEY6-15" value="&lt;div&gt;# paintComponent(Graphics): void&lt;/div&gt;" style="text;strokeColor=none;fillColor=none;align=left;verticalAlign=top;spacingLeft=4;spacingRight=4;overflow=hidden;rotatable=0;points=[[0,0.5],[1,0.5]];portConstraint=eastwest;whiteSpace=wrap;html=1;" vertex="1" parent="Q50zAmBe0Ixp0AazkEY6-12">
          <mxGeometry y="108" width="220" height="32" as="geometry" />
        </mxCell>
        <mxCell id="Q50zAmBe0Ixp0AazkEY6-16" value="CoordinateInteractions" style="swimlane;fontStyle=1;align=center;verticalAlign=top;childLayout=stackLayout;horizontal=1;startSize=26;horizontalStack=0;resizeParent=1;resizeParentMax=0;resizeLast=0;collapsible=1;marginBottom=0;whiteSpace=wrap;html=1;" vertex="1" parent="WIyWlLk6GJQsqaUBKTNV-1">
          <mxGeometry x="160" y="390" width="220" height="168" as="geometry" />
        </mxCell>
        <mxCell id="Q50zAmBe0Ixp0AazkEY6-17" value="&lt;div&gt;&lt;div&gt;- delay: int&lt;/div&gt;&lt;div&gt;- timer: Timer&lt;/div&gt;&lt;/div&gt;&lt;div&gt;- frame: CarView&lt;/div&gt;&lt;div&gt;carPoints: List&amp;lt;Point&amp;gt;&lt;/div&gt;" style="text;strokeColor=none;fillColor=none;align=left;verticalAlign=top;spacingLeft=4;spacingRight=4;overflow=hidden;rotatable=0;points=[[0,0.5],[1,0.5]];portConstraint=eastwest;whiteSpace=wrap;html=1;" vertex="1" parent="Q50zAmBe0Ixp0AazkEY6-16">
          <mxGeometry y="26" width="220" height="74" as="geometry" />
        </mxCell>
        <mxCell id="Q50zAmBe0Ixp0AazkEY6-18" value="" style="line;strokeWidth=1;fillColor=none;align=left;verticalAlign=middle;spacingTop=-1;spacingLeft=3;spacingRight=3;rotatable=0;labelPosition=right;points=[];portConstraint=eastwest;strokeColor=inherit;" vertex="1" parent="Q50zAmBe0Ixp0AazkEY6-16">
          <mxGeometry y="100" width="220" height="8" as="geometry" />
        </mxCell>
        <mxCell id="Q50zAmBe0Ixp0AazkEY6-19" value="&lt;div&gt;-IsCarOutOfBounds(int, int): boolean&lt;/div&gt;&lt;div&gt;loadCarToWorkshop(): void&lt;/div&gt;&lt;div&gt;moveit(int, int, int): void&lt;/div&gt;&lt;div&gt;&lt;br&gt;&lt;/div&gt;" style="text;strokeColor=none;fillColor=none;align=left;verticalAlign=top;spacingLeft=4;spacingRight=4;overflow=hidden;rotatable=0;points=[[0,0.5],[1,0.5]];portConstraint=eastwest;whiteSpace=wrap;html=1;" vertex="1" parent="Q50zAmBe0Ixp0AazkEY6-16">
          <mxGeometry y="108" width="220" height="60" as="geometry" />
        </mxCell>
        <mxCell id="Q50zAmBe0Ixp0AazkEY6-21" value="TimerListener" style="swimlane;fontStyle=1;align=center;verticalAlign=top;childLayout=stackLayout;horizontal=1;startSize=26;horizontalStack=0;resizeParent=1;resizeParentMax=0;resizeLast=0;collapsible=1;marginBottom=0;whiteSpace=wrap;html=1;" vertex="1" parent="WIyWlLk6GJQsqaUBKTNV-1">
          <mxGeometry x="165" y="610" width="210" height="60" as="geometry" />
        </mxCell>
        <mxCell id="Q50zAmBe0Ixp0AazkEY6-22" value="+ actionPerformed(ActionEvent): void" style="text;strokeColor=none;fillColor=none;align=left;verticalAlign=top;spacingLeft=4;spacingRight=4;overflow=hidden;rotatable=0;points=[[0,0.5],[1,0.5]];portConstraint=eastwest;whiteSpace=wrap;html=1;" vertex="1" parent="Q50zAmBe0Ixp0AazkEY6-21">
          <mxGeometry y="26" width="210" height="26" as="geometry" />
        </mxCell>
        <mxCell id="Q50zAmBe0Ixp0AazkEY6-23" value="" style="line;strokeWidth=1;fillColor=none;align=left;verticalAlign=middle;spacingTop=-1;spacingLeft=3;spacingRight=3;rotatable=0;labelPosition=right;points=[];portConstraint=eastwest;strokeColor=inherit;" vertex="1" parent="Q50zAmBe0Ixp0AazkEY6-21">
          <mxGeometry y="52" width="210" height="8" as="geometry" />
        </mxCell>
        <mxCell id="Q50zAmBe0Ixp0AazkEY6-25" value="" style="endArrow=open;startArrow=circlePlus;endFill=0;startFill=0;endSize=8;html=1;rounded=0;exitX=0.498;exitY=1.017;exitDx=0;exitDy=0;exitPerimeter=0;entryX=0.5;entryY=0;entryDx=0;entryDy=0;" edge="1" parent="WIyWlLk6GJQsqaUBKTNV-1" source="Q50zAmBe0Ixp0AazkEY6-19" target="Q50zAmBe0Ixp0AazkEY6-21">
          <mxGeometry width="160" relative="1" as="geometry">
            <mxPoint x="-70" y="390" as="sourcePoint" />
            <mxPoint x="90" y="390" as="targetPoint" />
          </mxGeometry>
        </mxCell>
        <mxCell id="Q50zAmBe0Ixp0AazkEY6-26" value="" style="endArrow=diamondThin;endFill=1;endSize=24;html=1;rounded=0;exitX=0.002;exitY=0.126;exitDx=0;exitDy=0;exitPerimeter=0;entryX=0.994;entryY=0.105;entryDx=0;entryDy=0;entryPerimeter=0;" edge="1" parent="WIyWlLk6GJQsqaUBKTNV-1" source="Q50zAmBe0Ixp0AazkEY6-9" target="Q50zAmBe0Ixp0AazkEY6-5">
          <mxGeometry width="160" relative="1" as="geometry">
            <mxPoint x="-70" y="390" as="sourcePoint" />
            <mxPoint x="90" y="390" as="targetPoint" />
          </mxGeometry>
        </mxCell>
        <mxCell id="Q50zAmBe0Ixp0AazkEY6-27" value="" style="endArrow=diamondThin;endFill=1;endSize=24;html=1;rounded=0;exitX=0.5;exitY=0;exitDx=0;exitDy=0;" edge="1" parent="WIyWlLk6GJQsqaUBKTNV-1" source="Q50zAmBe0Ixp0AazkEY6-16" target="Q50zAmBe0Ixp0AazkEY6-11">
          <mxGeometry width="160" relative="1" as="geometry">
            <mxPoint x="-70" y="390" as="sourcePoint" />
            <mxPoint x="90" y="390" as="targetPoint" />
          </mxGeometry>
        </mxCell>
        <mxCell id="Q50zAmBe0Ixp0AazkEY6-28" value="" style="endArrow=diamondThin;endFill=1;endSize=24;html=1;rounded=0;entryX=-0.005;entryY=0.145;entryDx=0;entryDy=0;entryPerimeter=0;exitX=1.013;exitY=0.252;exitDx=0;exitDy=0;exitPerimeter=0;" edge="1" parent="WIyWlLk6GJQsqaUBKTNV-1" source="Q50zAmBe0Ixp0AazkEY6-9" target="Q50zAmBe0Ixp0AazkEY6-13">
          <mxGeometry width="160" relative="1" as="geometry">
            <mxPoint x="350" y="350" as="sourcePoint" />
            <mxPoint x="510" y="350" as="targetPoint" />
          </mxGeometry>
        </mxCell>
        <mxCell id="Q50zAmBe0Ixp0AazkEY6-29" value="Use" style="endArrow=open;endSize=12;dashed=1;html=1;rounded=0;exitX=1;exitY=0.5;exitDx=0;exitDy=0;entryX=1.021;entryY=-0.004;entryDx=0;entryDy=0;entryPerimeter=0;" edge="1" parent="WIyWlLk6GJQsqaUBKTNV-1" source="Q50zAmBe0Ixp0AazkEY6-22" target="Q50zAmBe0Ixp0AazkEY6-11">
          <mxGeometry x="-0.0342" width="160" relative="1" as="geometry">
            <mxPoint x="500" y="510" as="sourcePoint" />
            <mxPoint x="530" y="390" as="targetPoint" />
            <Array as="points">
              <mxPoint x="550" y="480" />
            </Array>
            <mxPoint as="offset" />
          </mxGeometry>
        </mxCell>
      </root>
    </mxGraphModel>
  </diagram>
</mxfile>
